<svg width="20" height="20" viewBox="0 0 20 20" fill="none" xmlns="http://www.w3.org/2000/svg">
<path d="M10.25 1.99976V10.2498" stroke="#828B9D" stroke-width="1.5" stroke-linecap="round" stroke-linejoin="round"/>
<path d="M7.5 7.49976L10.25 10.2498L13 7.49976" stroke="#828B9D" stroke-width="1.5" stroke-linecap="round" stroke-linejoin="round"/>
<path d="M7.5 4.74976H6.0205C5.256 4.74976 4.57217 5.22367 4.30358 5.93959L2.11642 11.7714C2.03942 11.9777 2 12.1958 2 12.4158V15.7498C2 16.7627 2.82042 17.5831 3.83333 17.5831H16.6667C17.6796 17.5831 18.5 16.7627 18.5 15.7498V12.4158C18.5 12.1958 18.4606 11.9777 18.3836 11.7723L16.1964 5.93959C15.9278 5.22367 15.244 4.74976 14.4795 4.74976H13" stroke="#828B9D" stroke-width="1.5" stroke-linecap="round" stroke-linejoin="round"/>
<path d="M2.03516 12.083H6.02082C6.36824 12.083 6.68541 12.2792 6.84032 12.5899L7.25007 13.4094C7.40591 13.7202 7.72307 13.9163 8.07049 13.9163H12.4375C12.7849 13.9163 13.1021 13.7202 13.257 13.4094L13.6667 12.5899C13.8226 12.2792 14.1397 12.083 14.4872 12.083H18.4728" stroke="#828B9D" stroke-width="1.5" stroke-linecap="round" stroke-linejoin="round"/>
</svg>
