<?xml version="1.0" encoding="UTF-8"?>
<svg width="20px" height="20px" viewBox="0 0 20 20" version="1.1" xmlns="http://www.w3.org/2000/svg" xmlns:xlink="http://www.w3.org/1999/xlink">
    <title>lock.4</title>
    <g id="Page-1" stroke="none" stroke-width="1" fill="none" fill-rule="evenodd">
        <g id="Artboard" transform="translate(-222.000000, -276.000000)">
            <g id="lock.4" transform="translate(222.000000, 276.000000)">
                <rect id="Rectangle" x="0" y="0" width="20" height="20"></rect>
                <g transform="translate(5.333333, 4.000000)" id="Group" stroke="#828B9F" stroke-linecap="round" stroke-linejoin="round" stroke-width="1.33333333">
                    <g>
                        <path d="M8,12 L1.33333333,12 C0.596666667,12 0,11.4033333 0,10.6666667 L0,6 C0,5.26333333 0.596666667,4.66666667 1.33333333,4.66666667 L8,4.66666667 C8.73666667,4.66666667 9.33333333,5.26333333 9.33333333,6 L9.33333333,10.6666667 C9.33333333,11.4033333 8.73666667,12 8,12 Z" id="Path" fill="#828B9F"></path>
                        <path d="M2,4.66666667 L2,2.66666667 L2,2.66666667 C2,1.194 3.194,0 4.66666667,0 L4.66666667,0 C6.13933333,0 7.33333333,1.194 7.33333333,2.66666667 L7.33333333,2.66666667 L7.33333333,4.66666667" id="Path"></path>
                    </g>
                </g>
            </g>
        </g>
    </g>
</svg>