<?xml version="1.0" encoding="UTF-8"?>
<svg width="18px" height="18px" viewBox="0 0 18 18" version="1.1" xmlns="http://www.w3.org/2000/svg" xmlns:xlink="http://www.w3.org/1999/xlink">
    <title>04 Icons / share 24px</title>
    <g id="Page-1" stroke="none" stroke-width="1" fill="none" fill-rule="evenodd">
        <g id="Artboard" transform="translate(-123.000000, -174.000000)">
            <g id="Group" transform="translate(122.000000, 173.000000)">
                <g id="Group" transform="translate(-0.000000, -0.000000)">
                    <polygon id="a" points="0 0 20.0000001 0 20.0000001 20.0000001 0 20.0000001"></polygon>
                    <polygon id="a" points="0 0 20.0000001 0 20.0000001 20.0000001 0 20.0000001"></polygon>
                    <path d="M14.1666667,2.50000001 L15,2.50000001 C16.3808334,2.50000001 17.5,3.61916668 17.5,5.00000001 L17.5,15 C17.5,16.3808334 16.3808334,17.5 15,17.5 L5.00000001,17.5 C3.61916668,17.5 2.50000001,16.3808334 2.50000001,15 L2.50000001,14.1550001" id="Path" stroke="#828B9D" stroke-width="1.25" stroke-linecap="round" stroke-linejoin="round"></path>
                    <path d="M8.33333337,4.69750002 C5.14583335,4.69750002 2.50000001,6.32416669 2.50000001,10.1233334 L2.50000001,10.8858334 C3.57833335,8.39083337 5.81666669,8.1366667 8.33333337,8.1366667 L8.33333337,9.70833337 C8.33333337,10.2508334 8.9766667,10.5358334 9.37833337,10.1716667 L13.1283334,6.77250003 C13.4083334,6.51916669 13.4008334,6.07750003 13.1133334,5.83250002 L9.36333337,2.65000001 C8.9566667,2.30500001 8.33333337,2.59333334 8.33333337,3.12583335 C8.33333337,3.12583335 8.33333337,4.69750002 8.33333337,4.69750002 L8.33333337,4.69750002 Z" id="Path" stroke="#828B9D" stroke-width="1.25" stroke-linejoin="round"></path>
                </g>
            </g>
        </g>
    </g>
</svg>