<svg width="20" height="20" viewBox="0 0 20 20" fill="none" xmlns="http://www.w3.org/2000/svg">
<path d="M15.9236 5.03467L13.4098 2.52089C13.0764 2.18756 12.624 2 12.1529 2H5.77778C4.79556 2 4 2.79556 4 3.77778V16.2222C4 17.2044 4.79556 18 5.77778 18H14.6667C15.6489 18 16.4444 17.2044 16.4444 16.2222V6.29156C16.4444 5.82044 16.2569 5.368 15.9236 5.03467V5.03467Z" stroke="#151B26" stroke-width="1.5" stroke-linecap="round" stroke-linejoin="round"/>
<path d="M8.04377 12.3514L8.04387 12.3515L8.04657 12.3487L9.60318 10.7108V14.6857C9.60318 14.9133 9.76842 15.0785 9.99604 15.0785H10.4532C10.6651 15.0785 10.846 14.9146 10.846 14.6857V10.7109L12.3884 12.3344L12.3883 12.3344L12.3893 12.3353C12.5513 12.4974 12.7959 12.4974 12.9581 12.3514L12.9581 12.3514L12.96 12.3496L13.2743 12.0353L13.2743 12.0353L13.2761 12.0334C13.4208 11.8726 13.4233 11.6279 13.2743 11.4789L10.4885 8.69315C10.3404 8.54506 10.0945 8.54506 9.9464 8.69315L7.16068 11.4789C7.01162 11.6279 7.01415 11.8726 7.15887 12.0334L7.15882 12.0334L7.16068 12.0353L7.47497 12.3496C7.63956 12.5142 7.88439 12.4948 8.04377 12.3514Z" fill="#151B26" stroke="black" stroke-width="0.1"/>
<path d="M16.4464 6.44444H12.8908C12.4002 6.44444 12.002 6.04622 12.002 5.55556V2" stroke="#151B26" stroke-width="1.5" stroke-linecap="round" stroke-linejoin="round"/>
</svg>
