<svg xmlns="http://www.w3.org/2000/svg" viewBox="0 0 24 24"><defs><style>.cls-1{fill:#323232;}</style></defs><g id="Calque_2" data-name="Calque 2"><g id="Calque_1-2" data-name="Calque 1"><path class="cls-1" d="M22.28,16,20.16,7.62A2,2,0,0,0,21,6a2,2,0,0,0-2-2,2,2,0,0,0-1.62.84L7,1.76A2,2,0,1,0,3.82,3.61L1.37,20.11A2,2,0,1,0,4,22.37L20.33,19.1a2,2,0,1,0,2-3.07ZM20,17.63,3.67,20.9a2,2,0,0,0-.79-.69L5.28,4a1.94,1.94,0,0,0,1.3-.76L17,6.3A2,2,0,0,0,18.7,8l2.12,8.42A2,2,0,0,0,20,17.63Z"/><path class="cls-1" d="M11,14.74a.76.76,0,0,1-.75.75h-1a3.11,3.11,0,0,1,0-6.21h1.05A.75.75,0,0,1,11,10h0a.76.76,0,0,1-.75.75h-1a1.61,1.61,0,0,0,0,3.21h1a.76.76,0,0,1,.75.75Z"/><path class="cls-1" d="M13,14.74h0a.76.76,0,0,1,.75-.75h1a1.6,1.6,0,0,0,1.49-1.61,1.62,1.62,0,0,0-1.53-1.61h-1A.74.74,0,0,1,13,10h0a.75.75,0,0,1,.75-.75h1a3.11,3.11,0,0,1,0,6.21H13.75A.76.76,0,0,1,13,14.74Z"/><rect class="cls-1" x="9.37" y="11.69" width="5.63" height="1.5" rx="0.75"/></g></g></svg>