<svg xmlns="http://www.w3.org/2000/svg" viewBox="0 0 24 23.96"><defs><style>.cls-1{fill:#323232;}</style></defs><g id="Calque_2" data-name="Calque 2"><g id="Calque_1-2" data-name="Calque 1"><path class="cls-1" d="M16.64,1.5a1.86,1.86,0,0,1,0,3.72H3.36a1.86,1.86,0,0,1,0-3.72H16.64m0-1.5H3.36a3.36,3.36,0,0,0,0,6.72H16.64a3.36,3.36,0,0,0,0-6.72Z"/><path class="cls-1" d="M20.64,10.14a1.86,1.86,0,0,1,0,3.72H9.36a1.86,1.86,0,0,1,0-3.72H20.64m0-1.5H9.36a3.36,3.36,0,0,0,0,6.72H20.64a3.36,3.36,0,0,0,0-6.72Z"/><path class="cls-1" d="M11.64,18.74a1.86,1.86,0,1,1,0,3.72H3.36a1.86,1.86,0,1,1,0-3.72h8.28m0-1.5H3.36A3.35,3.35,0,0,0,0,20.6H0A3.35,3.35,0,0,0,3.36,24h8.28A3.35,3.35,0,0,0,15,20.6h0a3.35,3.35,0,0,0-3.36-3.36Z"/></g></g></svg>