<svg xmlns="http://www.w3.org/2000/svg" viewBox="0 0 24 24"><defs><style>.cls-1{fill:#323232;}</style></defs><g id="Calque_2" data-name="Calque 2"><g id="Calque_1-2" data-name="Calque 1"><path class="cls-1" d="M10.49,0a1,1,0,0,0-1,1v2.2H2.31a2.32,2.32,0,0,0,0,4.64h7.2V9.18H4.33a2.32,2.32,0,0,0,0,4.64H9.51v1.36H6.36a2.32,2.32,0,0,0,0,4.64H9.51V23a1,1,0,0,0,2,0V1A1,1,0,0,0,10.49,0ZM2.31,6.32a.82.82,0,1,1,0-1.64h7.2V6.32Zm2,6a.82.82,0,0,1,0-1.64H9.51v1.64Zm2,6a.82.82,0,1,1,0-1.64H9.51v1.64Z"/><path class="cls-1" d="M17.74,13.32h-3a2.33,2.33,0,0,1,0-4.65h3a2.33,2.33,0,0,1,0,4.65Zm-3-3.15a.83.83,0,0,0,0,1.65h3a.83.83,0,0,0,0-1.65Z"/><path class="cls-1" d="M21.69,19.21h-7a2.33,2.33,0,0,1,0-4.65h7a2.33,2.33,0,0,1,0,4.65Zm-7-3.15a.83.83,0,0,0,0,1.65h7a.83.83,0,0,0,0-1.65Z"/><path class="cls-1" d="M14.71,7.82A2.32,2.32,0,1,1,17,5.5,2.31,2.31,0,0,1,14.71,7.82Zm0-3.14a.82.82,0,0,0,0,1.64.82.82,0,1,0,0-1.64Z"/></g></g></svg>