<svg xmlns="http://www.w3.org/2000/svg" viewBox="0 0 24 24"><defs><style>.cls-1{fill:#323232;}</style></defs><g id="Calque_2" data-name="Calque 2"><g id="Calque_1-2" data-name="Calque 1"><path class="cls-1" d="M5.22,1.5V5.22H1.5V1.5H5.22M5.72,0H1A1,1,0,0,0,0,1V5.72a1,1,0,0,0,1,1H5.72a1,1,0,0,0,1-1V1a1,1,0,0,0-1-1Z"/><path class="cls-1" d="M13.86,1.5V5.22H10.14V1.5h3.72m.5-1.5H9.64a1,1,0,0,0-1,1V5.72a1,1,0,0,0,1,1h4.72a1,1,0,0,0,1-1V1a1,1,0,0,0-1-1Z"/><path class="cls-1" d="M5.22,10.14v3.72H1.5V10.14H5.22m.5-1.5H1a1,1,0,0,0-1,1v4.72a1,1,0,0,0,1,1H5.72a1,1,0,0,0,1-1V9.64a1,1,0,0,0-1-1Z"/><path class="cls-1" d="M13.86,10.14v3.72H10.14V10.14h3.72m.5-1.5H9.64a1,1,0,0,0-1,1v4.72a1,1,0,0,0,1,1h4.72a1,1,0,0,0,1-1V9.64a1,1,0,0,0-1-1Z"/><path class="cls-1" d="M13.86,18.78V22.5H10.14V18.78h3.72m.5-1.5H9.64a1,1,0,0,0-1,1V23a1,1,0,0,0,1,1h4.72a1,1,0,0,0,1-1V18.28a1,1,0,0,0-1-1Z"/><path class="cls-1" d="M22.5,1.5V5.22H18.78V1.5H22.5M23,0H18.28a1,1,0,0,0-1,1V5.72a1,1,0,0,0,1,1H23a1,1,0,0,0,1-1V1a1,1,0,0,0-1-1Z"/></g></g></svg>