<svg xmlns="http://www.w3.org/2000/svg" viewBox="0 0 24 24"><defs><style>.cls-1{fill:#323232;}</style></defs><g id="Calque_2" data-name="Calque 2"><g id="Calque_1-2" data-name="Calque 1"><path class="cls-1" d="M19,1.5A3.5,3.5,0,0,1,22.5,5V19A3.5,3.5,0,0,1,19,22.5H5A3.5,3.5,0,0,1,1.5,19V5A3.5,3.5,0,0,1,5,1.5H19M19,0H5A5,5,0,0,0,0,5V19a5,5,0,0,0,5,5H19a5,5,0,0,0,5-5V5a5,5,0,0,0-5-5Z"/><rect class="cls-1" x="12" y="3.25" width="8" height="1.5" rx="0.75"/><rect class="cls-1" x="12" y="6.25" width="8" height="1.5" rx="0.75"/><rect class="cls-1" x="14" y="9.25" width="6" height="1.5" rx="0.75"/><path class="cls-1" d="M7.5,4.5V6.26H5.74V4.5H7.5M8,3H5.24a1,1,0,0,0-1,1V6.76a1,1,0,0,0,1,1H8a1,1,0,0,0,1-1V4A1,1,0,0,0,8,3Z"/><path class="cls-1" d="M7.5,11.28V13H5.74V11.28H7.5M8,9.78H5.24a1,1,0,0,0-1,1v2.76a1,1,0,0,0,1,1H8a1,1,0,0,0,1-1V10.78a1,1,0,0,0-1-1Z"/><path class="cls-1" d="M7.5,18.07v1.75H5.74V18.07H7.5m.5-1.5H5.24a1,1,0,0,0-1,1v2.75a1,1,0,0,0,1,1H8a1,1,0,0,0,1-1V17.57a1,1,0,0,0-1-1Z"/><path class="cls-1" d="M16.7,20.75a.83.83,0,0,1-.6-.25l-1.74-1.74-.51.51a.94.94,0,0,1-.85.21.82.82,0,0,1-.58-.64l-1.11-5.53a1,1,0,0,1,.23-.77.87.87,0,0,1,.77-.23l5.53,1.11a.93.93,0,0,1,.64.58.86.86,0,0,1-.21.85l-.51.51L19.5,17.1a.85.85,0,0,1,0,1.2l-2.2,2.2A.83.83,0,0,1,16.7,20.75ZM14.36,17a.84.84,0,0,1,.59.24L16.7,19,18,17.7,16.24,16a.85.85,0,0,1,0-1.2l.11-.11L13,14l.67,3.37.11-.11A.83.83,0,0,1,14.36,17Zm-1.58-4Z"/></g></g></svg>