<svg xmlns="http://www.w3.org/2000/svg" viewBox="0 0 24 24"><defs><style>.cls-1{fill:#323232;}</style></defs><g id="Calque_2" data-name="Calque 2"><g id="Calque_1-2" data-name="Calque 1"><path class="cls-1" d="M19,0H5A5,5,0,0,0,0,5V19a5,5,0,0,0,5,5H19a5,5,0,0,0,5-5V5A5,5,0,0,0,19,0Zm3.5,5V7.25H8.75V1.5H19A3.5,3.5,0,0,1,22.5,5Zm0,3.75v5.5H8.75V8.75ZM1.5,5A3.5,3.5,0,0,1,5,1.5H7.25V7.25H1.5Zm0,3.75H7.25v5.5H1.5ZM5,22.5A3.5,3.5,0,0,1,1.5,19V15.75H7.25V22.5Zm14,0H8.75V15.75H22.5V19A3.5,3.5,0,0,1,19,22.5Z"/></g></g></svg>